<mxfile host="app.diagrams.net" modified="2020-10-29T03:27:15.998Z" agent="5.0 (Windows NT 10.0; Win64; x64) AppleWebKit/537.36 (KHTML, like Gecko) Chrome/86.0.4240.111 Safari/537.36" etag="_OSJx8DqSARfVSBn8ViI" version="13.8.6" type="github">
  <diagram id="3YNmYH0qSSx9ygbxcvI5" name="Page-1">
    <mxGraphModel dx="1422" dy="794" grid="1" gridSize="10" guides="1" tooltips="1" connect="1" arrows="1" fold="1" page="1" pageScale="1" pageWidth="827" pageHeight="1169" math="0" shadow="0">
      <root>
        <mxCell id="0" />
        <mxCell id="1" parent="0" />
        <mxCell id="AVRBnqflgX2uXjCEzhgj-6" value="" style="edgeStyle=orthogonalEdgeStyle;rounded=0;orthogonalLoop=1;jettySize=auto;html=1;" edge="1" parent="1" source="AVRBnqflgX2uXjCEzhgj-1">
          <mxGeometry relative="1" as="geometry">
            <mxPoint x="400" y="280" as="targetPoint" />
          </mxGeometry>
        </mxCell>
        <mxCell id="AVRBnqflgX2uXjCEzhgj-1" value="监控" style="ellipse;whiteSpace=wrap;html=1;" vertex="1" parent="1">
          <mxGeometry x="340" y="310" width="120" height="80" as="geometry" />
        </mxCell>
        <mxCell id="AVRBnqflgX2uXjCEzhgj-2" value="8T" style="rounded=1;whiteSpace=wrap;html=1;" vertex="1" parent="1">
          <mxGeometry x="120" y="470" width="560" height="170" as="geometry" />
        </mxCell>
        <mxCell id="AVRBnqflgX2uXjCEzhgj-3" value="" style="shape=flexArrow;endArrow=classic;html=1;entryX=0.5;entryY=1;entryDx=0;entryDy=0;exitX=0.5;exitY=0;exitDx=0;exitDy=0;" edge="1" parent="1" source="AVRBnqflgX2uXjCEzhgj-2" target="AVRBnqflgX2uXjCEzhgj-1">
          <mxGeometry width="50" height="50" relative="1" as="geometry">
            <mxPoint x="220" y="470" as="sourcePoint" />
            <mxPoint x="270" y="420" as="targetPoint" />
          </mxGeometry>
        </mxCell>
        <mxCell id="AVRBnqflgX2uXjCEzhgj-4" value="自定义监控采集器抓取数据上报" style="text;html=1;align=center;verticalAlign=middle;resizable=0;points=[];autosize=1;" vertex="1" parent="1">
          <mxGeometry x="414" y="430" width="180" height="20" as="geometry" />
        </mxCell>
        <mxCell id="AVRBnqflgX2uXjCEzhgj-7" value="API网关" style="shape=process;whiteSpace=wrap;html=1;backgroundOutline=1;" vertex="1" parent="1">
          <mxGeometry x="120" y="220" width="560" height="60" as="geometry" />
        </mxCell>
        <mxCell id="AVRBnqflgX2uXjCEzhgj-10" value="封装监控接口：&lt;br&gt;1、兼容蓝鲸版本，不暴露sql&lt;br&gt;2、权限控制" style="html=1;" vertex="1" parent="1">
          <mxGeometry x="200" y="225" width="160" height="50" as="geometry" />
        </mxCell>
        <mxCell id="AVRBnqflgX2uXjCEzhgj-11" value="" style="shape=singleArrow;direction=north;whiteSpace=wrap;html=1;" vertex="1" parent="1">
          <mxGeometry x="250" y="125" width="60" height="100" as="geometry" />
        </mxCell>
        <mxCell id="AVRBnqflgX2uXjCEzhgj-12" value="TStack" style="ellipse;whiteSpace=wrap;html=1;" vertex="1" parent="1">
          <mxGeometry x="220" y="45" width="120" height="80" as="geometry" />
        </mxCell>
      </root>
    </mxGraphModel>
  </diagram>
</mxfile>
